<?xml version="1.0" encoding="UTF-8" standalone="no"?>
<!-- Uploaded to: SVG Repo, www.svgrepo.com, Generator: SVG Repo Mixer Tools -->

<svg
   viewBox="0 -4.5 512 512"
   version="1.1"
   id="svg1"
   sodipodi:docname="icon.svg"
   inkscape:version="1.3.2 (091e20e, 2023-11-25, custom)"
   xml:space="preserve"
   width="512"
   height="512"
   inkscape:export-filename="icon.png"
   inkscape:export-xdpi="48"
   inkscape:export-ydpi="48"
   xmlns:inkscape="http://www.inkscape.org/namespaces/inkscape"
   xmlns:sodipodi="http://sodipodi.sourceforge.net/DTD/sodipodi-0.dtd"
   xmlns:xlink="http://www.w3.org/1999/xlink"
   xmlns="http://www.w3.org/2000/svg"
   xmlns:svg="http://www.w3.org/2000/svg"><defs
     id="defs1"><linearGradient
       id="linearGradient7"
       inkscape:collect="always"><stop
         style="stop-color:#eef4fd;stop-opacity:1;"
         offset="0"
         id="stop7" /><stop
         style="stop-color:#c3cede;stop-opacity:1;"
         offset="1"
         id="stop8" /></linearGradient><inkscape:path-effect
       effect="fillet_chamfer"
       id="path-effect4"
       is_visible="true"
       lpeversion="1"
       nodesatellites_param="F,0,0,1,0,64,0,1 @ F,0,0,1,0,64,0,1 @ F,0,0,1,0,64,0,1 @ F,0,0,1,0,64,0,1"
       radius="64"
       unit="px"
       method="auto"
       mode="F"
       chamfer_steps="1"
       flexible="false"
       use_knot_distance="true"
       apply_no_radius="true"
       apply_with_radius="true"
       only_selected="false"
       hide_knots="false" /><inkscape:path-effect
       effect="fillet_chamfer"
       id="path-effect2"
       is_visible="true"
       lpeversion="1"
       nodesatellites_param="F,0,0,1,0,38,0,1 @ F,0,0,1,0,38,0,1 @ F,0,0,1,0,38,0,1 @ F,0,0,1,0,38,0,1"
       radius="38"
       unit="px"
       method="auto"
       mode="F"
       chamfer_steps="1"
       flexible="false"
       use_knot_distance="true"
       apply_no_radius="true"
       apply_with_radius="true"
       only_selected="false"
       hide_knots="false" /><linearGradient
       inkscape:collect="always"
       xlink:href="#linearGradient7"
       id="linearGradient8"
       x1="26.542423"
       y1="19.253798"
       x2="486.25552"
       y2="478.96689"
       gradientUnits="userSpaceOnUse" /></defs><sodipodi:namedview
     id="namedview1"
     pagecolor="#ffffff"
     bordercolor="#000000"
     borderopacity="0.25"
     inkscape:showpageshadow="2"
     inkscape:pageopacity="0.0"
     inkscape:pagecheckerboard="0"
     inkscape:deskcolor="#d1d1d1"
     inkscape:zoom="1.0656251"
     inkscape:cx="211.61288"
     inkscape:cy="257.12608"
     inkscape:window-width="1680"
     inkscape:window-height="961"
     inkscape:window-x="3591"
     inkscape:window-y="1104"
     inkscape:window-maximized="1"
     inkscape:current-layer="svg1" /><path
     style="display:inline;opacity:1;fill:url(#linearGradient8);fill-opacity:1;fill-rule:evenodd;stroke:#ffffff;stroke-width:0;stroke-linejoin:round;stroke-dasharray:none"
     id="path2"
     width="512"
     height="512"
     x="0"
     y="-4.5"
     inkscape:path-effect="#path-effect4"
     sodipodi:type="rect"
     d="m 64,-4.5 h 384 a 64,64 45 0 1 64,64 v 384 a 64,64 135 0 1 -64,64 H 64 a 64,64 45 0 1 -64,-64 v -384 a 64,64 135 0 1 64,-64 z" /><path
     style="display:inline;opacity:1;fill:#ffffff;fill-opacity:1;fill-rule:evenodd;stroke:#ffffff;stroke-width:0;stroke-linejoin:round;stroke-dasharray:none"
     id="rect1"
     width="512"
     height="512"
     x="0"
     y="-4.5"
     inkscape:path-effect="#path-effect2"
     sodipodi:type="rect"
     d="m 38,-4.5 h 436 a 38,38 45 0 1 38,38 v 436 a 38,38 135 0 1 -38,38 H 38 a 38,38 45 0 1 -38,-38 v -436 a 38,38 135 0 1 38,-38 z"
     transform="matrix(0.89453125,0,0,0.89453125,27,26.525391)" /><path
     id="path4"
     style="opacity:1;fill:#178fdb;fill-opacity:1;fill-rule:evenodd;stroke:#ffffff;stroke-width:0;stroke-linejoin:round;stroke-dasharray:none"
     d="m 223.5,95.5 c -15.18781,0 -27.5,12.31219 -27.5,27.5 0,15.18781 12.31219,27.5 27.5,27.5 H 317 L 108.05469,360.55469 c -10.739241,10.73938 -10.739241,28.15124 0,38.89062 10.73938,10.73924 28.15124,10.73924 38.89062,0 L 357,190.5 V 284 c 0,15.18781 12.31219,27.5 27.5,27.5 15.18781,0 27.5,-12.31219 27.5,-27.5 V 123 c 0,-15.18781 -12.31219,-27.5 -27.5,-27.5 z"
     sodipodi:nodetypes="cscccccccscccc" /></svg>
